<mxfile host="app.diagrams.net" modified="2021-06-16T04:04:38.644Z" agent="5.0 (Windows NT 10.0; Win64; x64) AppleWebKit/537.36 (KHTML, like Gecko) Chrome/91.0.4472.101 Safari/537.36" etag="QfuLUJVJqC674wjCQw34" version="14.6.13" type="github">
  <diagram id="JyaZXncWhBIN4btw3Blg" name="Page-1">
    <mxGraphModel dx="1422" dy="762" grid="0" gridSize="10" guides="1" tooltips="1" connect="1" arrows="1" fold="1" page="1" pageScale="1" pageWidth="850" pageHeight="1100" math="0" shadow="0">
      <root>
        <mxCell id="0" />
        <mxCell id="1" parent="0" />
        <mxCell id="_-NPAYiyVPZmVnWseqtB-1" value="Event 2&lt;br&gt;--------------------------------------&lt;br&gt;Existing Customer Order from the Warehouse" style="rounded=1;whiteSpace=wrap;html=1;" parent="1" vertex="1">
          <mxGeometry x="310" y="300" width="160" height="110" as="geometry" />
        </mxCell>
        <mxCell id="NgFew3nOP7UfcyP6V-yp-3" style="edgeStyle=orthogonalEdgeStyle;rounded=0;orthogonalLoop=1;jettySize=auto;html=1;exitX=0;exitY=0.25;exitDx=0;exitDy=0;entryX=1;entryY=0.164;entryDx=0;entryDy=0;entryPerimeter=0;" parent="1" target="_-NPAYiyVPZmVnWseqtB-1" edge="1">
          <mxGeometry relative="1" as="geometry">
            <mxPoint x="660" y="360" as="sourcePoint" />
          </mxGeometry>
        </mxCell>
        <mxCell id="_-NPAYiyVPZmVnWseqtB-5" value="Customer" style="whiteSpace=wrap;html=1;aspect=fixed;" parent="1" vertex="1">
          <mxGeometry x="20" y="300" width="120" height="120" as="geometry" />
        </mxCell>
        <mxCell id="_-NPAYiyVPZmVnWseqtB-6" value="" style="endArrow=classic;html=1;exitX=0.5;exitY=0;exitDx=0;exitDy=0;entryX=0.25;entryY=0;entryDx=0;entryDy=0;" parent="1" source="_-NPAYiyVPZmVnWseqtB-5" target="_-NPAYiyVPZmVnWseqtB-1" edge="1">
          <mxGeometry relative="1" as="geometry">
            <mxPoint x="170" y="290" as="sourcePoint" />
            <mxPoint x="360" y="160" as="targetPoint" />
            <Array as="points">
              <mxPoint x="80" y="160" />
              <mxPoint x="350" y="160" />
            </Array>
          </mxGeometry>
        </mxCell>
        <mxCell id="_-NPAYiyVPZmVnWseqtB-8" value="" style="endArrow=classic;html=1;exitX=1;exitY=0.5;exitDx=0;exitDy=0;" parent="1" source="_-NPAYiyVPZmVnWseqtB-5" edge="1">
          <mxGeometry relative="1" as="geometry">
            <mxPoint x="370" y="360" as="sourcePoint" />
            <mxPoint x="310" y="360" as="targetPoint" />
          </mxGeometry>
        </mxCell>
        <mxCell id="_-NPAYiyVPZmVnWseqtB-9" value="Item search" style="edgeLabel;resizable=0;html=1;align=center;verticalAlign=middle;" parent="_-NPAYiyVPZmVnWseqtB-8" connectable="0" vertex="1">
          <mxGeometry relative="1" as="geometry" />
        </mxCell>
        <mxCell id="_-NPAYiyVPZmVnWseqtB-10" value="" style="endArrow=classic;html=1;exitX=0;exitY=0.75;exitDx=0;exitDy=0;entryX=0.992;entryY=0.675;entryDx=0;entryDy=0;entryPerimeter=0;" parent="1" source="_-NPAYiyVPZmVnWseqtB-1" target="_-NPAYiyVPZmVnWseqtB-5" edge="1">
          <mxGeometry relative="1" as="geometry">
            <mxPoint x="370" y="360" as="sourcePoint" />
            <mxPoint x="470" y="360" as="targetPoint" />
          </mxGeometry>
        </mxCell>
        <mxCell id="_-NPAYiyVPZmVnWseqtB-11" value="Search results" style="edgeLabel;resizable=0;html=1;align=center;verticalAlign=middle;" parent="_-NPAYiyVPZmVnWseqtB-10" connectable="0" vertex="1">
          <mxGeometry relative="1" as="geometry" />
        </mxCell>
        <mxCell id="_-NPAYiyVPZmVnWseqtB-16" value="" style="endArrow=classic;html=1;exitX=0;exitY=0.5;exitDx=0;exitDy=0;entryX=0.5;entryY=0;entryDx=0;entryDy=0;" parent="1" target="_-NPAYiyVPZmVnWseqtB-1" edge="1">
          <mxGeometry relative="1" as="geometry">
            <mxPoint x="660" y="140" as="sourcePoint" />
            <mxPoint x="470" y="200" as="targetPoint" />
            <Array as="points">
              <mxPoint x="390" y="140" />
            </Array>
          </mxGeometry>
        </mxCell>
        <mxCell id="_-NPAYiyVPZmVnWseqtB-17" value="Customer profile found" style="edgeLabel;resizable=0;html=1;align=center;verticalAlign=middle;" parent="_-NPAYiyVPZmVnWseqtB-16" connectable="0" vertex="1">
          <mxGeometry relative="1" as="geometry">
            <mxPoint x="85" as="offset" />
          </mxGeometry>
        </mxCell>
        <mxCell id="_-NPAYiyVPZmVnWseqtB-19" value="" style="endArrow=classic;html=1;exitX=1;exitY=0.75;exitDx=0;exitDy=0;" parent="1" source="_-NPAYiyVPZmVnWseqtB-1" edge="1">
          <mxGeometry relative="1" as="geometry">
            <mxPoint x="370" y="360" as="sourcePoint" />
            <mxPoint x="660" y="383" as="targetPoint" />
            <Array as="points" />
          </mxGeometry>
        </mxCell>
        <mxCell id="_-NPAYiyVPZmVnWseqtB-20" value="Item requested" style="edgeLabel;resizable=0;html=1;align=center;verticalAlign=middle;" parent="_-NPAYiyVPZmVnWseqtB-19" connectable="0" vertex="1">
          <mxGeometry relative="1" as="geometry" />
        </mxCell>
        <mxCell id="_-NPAYiyVPZmVnWseqtB-21" value="" style="endArrow=classic;html=1;entryX=1;entryY=0.25;entryDx=0;entryDy=0;exitX=0;exitY=0.25;exitDx=0;exitDy=0;" parent="1" source="_-NPAYiyVPZmVnWseqtB-1" target="_-NPAYiyVPZmVnWseqtB-5" edge="1">
          <mxGeometry relative="1" as="geometry">
            <mxPoint x="370" y="360" as="sourcePoint" />
            <mxPoint x="470" y="360" as="targetPoint" />
          </mxGeometry>
        </mxCell>
        <mxCell id="_-NPAYiyVPZmVnWseqtB-22" value="Item out of stock" style="edgeLabel;resizable=0;html=1;align=center;verticalAlign=middle;" parent="_-NPAYiyVPZmVnWseqtB-21" connectable="0" vertex="1">
          <mxGeometry relative="1" as="geometry" />
        </mxCell>
        <mxCell id="_-NPAYiyVPZmVnWseqtB-23" value="" style="endArrow=classic;html=1;exitX=0.5;exitY=1;exitDx=0;exitDy=0;entryX=0;entryY=0.75;entryDx=0;entryDy=0;" parent="1" source="_-NPAYiyVPZmVnWseqtB-1" edge="1">
          <mxGeometry relative="1" as="geometry">
            <mxPoint x="370" y="360" as="sourcePoint" />
            <mxPoint x="660" y="560" as="targetPoint" />
            <Array as="points">
              <mxPoint x="390" y="490" />
              <mxPoint x="390" y="560" />
            </Array>
          </mxGeometry>
        </mxCell>
        <mxCell id="_-NPAYiyVPZmVnWseqtB-24" value="Item requested" style="edgeLabel;resizable=0;html=1;align=center;verticalAlign=middle;" parent="_-NPAYiyVPZmVnWseqtB-23" connectable="0" vertex="1">
          <mxGeometry relative="1" as="geometry">
            <mxPoint x="90" as="offset" />
          </mxGeometry>
        </mxCell>
        <mxCell id="_-NPAYiyVPZmVnWseqtB-25" value="" style="endArrow=classic;html=1;exitX=0;exitY=0.25;exitDx=0;exitDy=0;entryX=0.75;entryY=1;entryDx=0;entryDy=0;" parent="1" target="_-NPAYiyVPZmVnWseqtB-1" edge="1">
          <mxGeometry relative="1" as="geometry">
            <mxPoint x="660" y="520" as="sourcePoint" />
            <mxPoint x="430" y="430" as="targetPoint" />
            <Array as="points">
              <mxPoint x="430" y="520" />
            </Array>
          </mxGeometry>
        </mxCell>
        <mxCell id="_-NPAYiyVPZmVnWseqtB-26" value="ItemID, cost, description, quantity" style="edgeLabel;resizable=0;html=1;align=center;verticalAlign=middle;" parent="_-NPAYiyVPZmVnWseqtB-25" connectable="0" vertex="1">
          <mxGeometry relative="1" as="geometry">
            <mxPoint x="50" as="offset" />
          </mxGeometry>
        </mxCell>
        <mxCell id="_-NPAYiyVPZmVnWseqtB-38" value="" style="endArrow=classic;html=1;entryX=0.75;entryY=0;entryDx=0;entryDy=0;exitX=0;exitY=0.5;exitDx=0;exitDy=0;" parent="1" target="_-NPAYiyVPZmVnWseqtB-1" edge="1">
          <mxGeometry relative="1" as="geometry">
            <mxPoint x="660" y="260" as="sourcePoint" />
            <mxPoint x="470" y="360" as="targetPoint" />
            <Array as="points">
              <mxPoint x="430" y="260" />
            </Array>
          </mxGeometry>
        </mxCell>
        <mxCell id="_-NPAYiyVPZmVnWseqtB-39" value="ItemID, Cost, Description" style="edgeLabel;resizable=0;html=1;align=center;verticalAlign=middle;" parent="_-NPAYiyVPZmVnWseqtB-38" connectable="0" vertex="1">
          <mxGeometry relative="1" as="geometry">
            <mxPoint x="25" as="offset" />
          </mxGeometry>
        </mxCell>
        <mxCell id="NgFew3nOP7UfcyP6V-yp-4" value="Item missing" style="edgeLabel;resizable=0;html=1;align=center;verticalAlign=middle;" parent="1" connectable="0" vertex="1">
          <mxGeometry x="559.9996710543401" y="339.99999913435363" as="geometry" />
        </mxCell>
        <mxCell id="NgFew3nOP7UfcyP6V-yp-7" value="Name and phone number" style="edgeLabel;resizable=0;html=1;align=center;verticalAlign=middle;" parent="1" connectable="0" vertex="1">
          <mxGeometry x="220" y="160" as="geometry" />
        </mxCell>
        <mxCell id="NgFew3nOP7UfcyP6V-yp-8" value="&amp;nbsp; &amp;nbsp; &amp;nbsp; &amp;nbsp; &amp;nbsp; &amp;nbsp;Customer" style="html=1;dashed=0;whitespace=wrap;shape=mxgraph.dfd.dataStoreID;align=left;spacingLeft=3;points=[[0,0],[0.5,0],[1,0],[0,0.5],[1,0.5],[0,1],[0.5,1],[1,1]];" parent="1" vertex="1">
          <mxGeometry x="660" y="110" width="150" height="70" as="geometry" />
        </mxCell>
        <mxCell id="NgFew3nOP7UfcyP6V-yp-9" value="&lt;span style=&quot;text-align: center&quot;&gt;&amp;nbsp; &amp;nbsp; &amp;nbsp; &amp;nbsp; &amp;nbsp; &amp;nbsp;Item Details&lt;/span&gt;" style="html=1;dashed=0;whitespace=wrap;shape=mxgraph.dfd.dataStoreID;align=left;spacingLeft=3;points=[[0,0],[0.5,0],[1,0],[0,0.5],[1,0.5],[0,1],[0.5,1],[1,1]];" parent="1" vertex="1">
          <mxGeometry x="660" y="230" width="150" height="70" as="geometry" />
        </mxCell>
        <mxCell id="NgFew3nOP7UfcyP6V-yp-10" value="&lt;span style=&quot;text-align: center&quot;&gt;&amp;nbsp; &amp;nbsp; &amp;nbsp; &amp;nbsp; &amp;nbsp; &amp;nbsp;Store&lt;/span&gt;&lt;br style=&quot;text-align: center&quot;&gt;&lt;span style=&quot;text-align: center&quot;&gt;&amp;nbsp; &amp;nbsp; &amp;nbsp; &amp;nbsp; &amp;nbsp; &amp;nbsp;Inventory Level&lt;/span&gt;" style="html=1;dashed=0;whitespace=wrap;shape=mxgraph.dfd.dataStoreID;align=left;spacingLeft=3;points=[[0,0],[0.5,0],[1,0],[0,0.5],[1,0.5],[0,1],[0.5,1],[1,1]];" parent="1" vertex="1">
          <mxGeometry x="660" y="340" width="150" height="70" as="geometry" />
        </mxCell>
        <mxCell id="NgFew3nOP7UfcyP6V-yp-11" value="&lt;span style=&quot;text-align: center&quot;&gt;&amp;nbsp; &amp;nbsp; &amp;nbsp; &amp;nbsp; &amp;nbsp; &amp;nbsp;Warehouse&lt;/span&gt;&lt;br style=&quot;text-align: center&quot;&gt;&lt;span style=&quot;text-align: center&quot;&gt;&amp;nbsp; &amp;nbsp; &amp;nbsp; &amp;nbsp; &amp;nbsp; &amp;nbsp;Inventory Level&lt;/span&gt;" style="html=1;dashed=0;whitespace=wrap;shape=mxgraph.dfd.dataStoreID;align=left;spacingLeft=3;points=[[0,0],[0.5,0],[1,0],[0,0.5],[1,0.5],[0,1],[0.5,1],[1,1]];" parent="1" vertex="1">
          <mxGeometry x="660" y="510" width="150" height="70" as="geometry" />
        </mxCell>
      </root>
    </mxGraphModel>
  </diagram>
</mxfile>
